# xmcd
#
# Track frame offsets: 
#        150
#        12462
#        23378
#        40541
#        53038
#        65406
#        76064
#        88068
#        100617
#        111256
#
# Disc length: 1653 seconds
#
# Revision: 0
# Processed by: cddbd v1.5.2PL0 Copyright (c) Steve Scherf et al.
# Submitted via: ExactAudioCopy v1.0b1
#
DISCID=6806730a
DTITLE=Walter Jackson - Speak Her Name
DYEAR=1967
DGENRE=Soul
TTITLE0=Speak Her Name
TTITLE1=Tear for Tear
TTITLE2=Not You
TTITLE3=After You There Can Be Nothing
TTITLE4=They Don't Give Medals (To Yesterday's Heroes)
TTITLE5=A Corner in the Sun
TTITLE6=My One Chance to Make It
TTITLE7=She's a Woman
TTITLE8=I'll Keep on Trying
TTITLE9=It's an Uphill Climb to the Bottom
EXTD=
EXTT0=
EXTT1=
EXTT2=
EXTT3=
EXTT4=
EXTT5=
EXTT6=
EXTT7=
EXTT8=
EXTT9=
PLAYORDER=
